<?xml version="1.0" encoding="utf-8"?>
<!-- Generator: Adobe Illustrator 25.1.0, SVG Export Plug-In . SVG Version: 6.00 Build 0)  -->
<svg version="1.1" id="圖層_1" xmlns="http://www.w3.org/2000/svg" xmlns:xlink="http://www.w3.org/1999/xlink" x="0px" y="0px"
	 viewBox="0 0 512 512" style="enable-background:new 0 0 512 512;" xml:space="preserve">
<path fill="#fed426" d="M452,512H60c-33.1,0-60-26.9-60-60V60C0,26.9,26.9,0,60,0h392c33.1,0,60,26.9,60,60v392C512,485.1,485.1,512,452,512z
	 M64.1,33C46.9,33,33,46.9,33,64.1v384.9c0,17.2,13.9,31.1,31.1,31.1h384.9c17.2,0,31.1-13.9,31.1-31.1V64.1
	c0-17.2-13.9-31.1-31.1-31.1H64.1z M420.2,162.1l-22-18.9L217,346l-101.1-95.8l-20.6,22l123.1,116.3L420.2,162.1z"/>
</svg>

