<svg id="圖層_1" data-name="圖層 1" xmlns="http://www.w3.org/2000/svg" viewBox="0 0 1079.28 1919.64"><defs><style>.cls-1{fill:#231815;opacity:0.4;}.cls-2{fill:#1da882;}</style></defs><path class="cls-1" d="M.72.36V1920H1080V.36ZM839.32,1288H240.48V689.16H839.32Z" transform="translate(-0.72 -0.36)"/><polygon class="cls-2" points="838.89 788.15 864.39 788.15 864.39 664.64 738.21 664.64 738.21 688.8 838.89 688.8 838.89 788.15"/><polygon class="cls-2" points="739.54 1287.43 739.54 1312.93 863.05 1312.93 863.05 1186.75 838.89 1186.75 838.89 1287.43 739.54 1287.43"/><polygon class="cls-2" points="338.61 688.8 338.61 663.31 215.1 663.31 215.1 789.49 239.26 789.49 239.26 688.8 338.61 688.8"/><polygon class="cls-2" points="239.26 1188.08 213.77 1188.08 213.77 1311.59 339.95 1311.59 339.95 1287.43 239.26 1287.43 239.26 1188.08"/></svg>